<?xml version="1.0" encoding="UTF-8"?>
<svg xmlns="http://www.w3.org/2000/svg" xmlns:xlink="http://www.w3.org/1999/xlink" width="500px" height="500px" viewBox="0 0 500 500" version="1.1">
<g id="surface1">
<path style=" stroke:none;fill-rule:nonzero;fill:rgb(0%,0%,0%);fill-opacity:1;" d="M 160.488281 48.199219 C 191.738281 92.160156 209.746094 132.414062 217.691406 176.378906 C 225.105469 216.101562 219.28125 248.410156 198.09375 284.429688 L 184.851562 307.203125 L 24.894531 307.203125 L 140.890625 399.894531 C 204.980469 450.742188 257.945312 492.585938 259.535156 492.054688 C 261.121094 492.054688 278.601562 477.222656 298.730469 459.214844 L 334.746094 425.847656 L 270.128906 373.941406 L 205.507812 322.035156 L 283.898438 287.605469 C 327.332031 269.066406 373.410156 248.941406 386.121094 243.113281 L 408.898438 233.050781 L 293.433594 140.359375 C 229.34375 88.984375 167.902344 39.195312 156.25 30.191406 L 135.59375 13.242188 Z M 169.492188 317.265625 C 169.492188 320.445312 161.015625 328.917969 150.953125 336.863281 C 140.359375 344.808594 132.945312 351.695312 134.003906 353.285156 C 135.0625 354.34375 149.894531 349.046875 166.84375 341.632812 C 192.265625 329.980469 198.621094 328.917969 206.566406 334.746094 C 211.335938 338.453125 238.878906 360.167969 267.480469 383.472656 L 318.855469 425.316406 L 289.722656 454.449219 L 260.59375 483.582031 L 184.320312 423.199219 C 142.480469 389.832031 96.398438 352.753906 81.039062 341.632812 C 65.679688 329.980469 53.496094 318.855469 52.964844 316.207031 C 52.964844 314.089844 79.449219 312.5 111.230469 312.5 C 144.597656 312.5 169.492188 314.617188 169.492188 317.265625 Z M 169.492188 317.265625 "/>
<path style=" stroke:none;fill-rule:nonzero;fill:rgb(0%,0%,0%);fill-opacity:1;" d="M 278.070312 328.390625 C 266.949219 340.042969 258.472656 350.636719 260.0625 351.695312 C 261.121094 352.753906 280.191406 368.113281 301.90625 385.59375 L 341.632812 417.371094 L 362.816406 398.304688 C 374.46875 388.242188 401.484375 363.347656 423.199219 343.21875 L 461.863281 307.203125 L 298.730469 307.203125 Z M 394.597656 357.519531 C 368.644531 381.886719 345.339844 402.542969 342.691406 402.542969 C 340.570312 402.542969 323.09375 390.359375 304.027344 375 L 268.539062 347.457031 L 288.136719 329.980469 L 307.203125 312.5 L 374.46875 312.5 L 442.265625 313.03125 Z M 394.597656 357.519531 "/>
</g>
</svg>
